<svg 
 xmlns="http://www.w3.org/2000/svg"
 xmlns:xlink="http://www.w3.org/1999/xlink"
 width="23px" height="24px">
<path fill-rule="evenodd"
 d="M6.555,15.801 L20.192,15.801 C21.738,15.801 23.000,14.578 23.000,13.078 L23.000,7.515 C23.000,7.510 23.000,7.500 23.000,7.495 C23.000,7.480 23.000,7.470 23.000,7.455 C23.000,7.446 23.000,7.436 22.995,7.426 C22.995,7.416 22.990,7.401 22.990,7.391 C22.990,7.381 22.985,7.372 22.985,7.362 C22.980,7.352 22.980,7.342 22.975,7.327 C22.969,7.317 22.969,7.308 22.964,7.298 C22.959,7.288 22.959,7.278 22.954,7.268 C22.949,7.258 22.944,7.248 22.939,7.234 C22.934,7.224 22.929,7.213 22.924,7.209 C22.919,7.199 22.913,7.189 22.908,7.179 C22.903,7.170 22.898,7.165 22.893,7.155 C22.888,7.145 22.878,7.134 22.873,7.125 C22.868,7.115 22.863,7.110 22.852,7.100 C22.847,7.091 22.837,7.086 22.832,7.076 C22.827,7.066 22.817,7.061 22.812,7.051 C22.807,7.041 22.796,7.036 22.791,7.031 C22.781,7.021 22.776,7.016 22.766,7.007 C22.756,7.002 22.751,6.992 22.741,6.987 C22.730,6.982 22.720,6.972 22.710,6.967 C22.700,6.962 22.695,6.957 22.685,6.952 C22.674,6.947 22.664,6.942 22.654,6.933 C22.644,6.928 22.634,6.923 22.624,6.918 C22.613,6.913 22.603,6.908 22.593,6.903 C22.583,6.898 22.573,6.893 22.563,6.888 C22.552,6.883 22.542,6.883 22.532,6.878 C22.522,6.874 22.507,6.869 22.496,6.869 C22.486,6.869 22.476,6.863 22.471,6.863 C22.456,6.858 22.445,6.858 22.430,6.858 C22.425,6.858 22.420,6.854 22.410,6.854 L5.126,4.540 L5.126,2.202 C5.126,2.178 5.126,2.153 5.121,2.133 C5.121,2.128 5.121,2.123 5.116,2.114 C5.116,2.098 5.111,2.084 5.111,2.069 C5.105,2.055 5.105,2.045 5.100,2.029 C5.100,2.019 5.095,2.015 5.095,2.005 C5.090,1.990 5.085,1.976 5.080,1.961 C5.080,1.955 5.075,1.945 5.075,1.940 C5.070,1.926 5.065,1.916 5.055,1.901 C5.050,1.897 5.050,1.886 5.045,1.881 C5.039,1.872 5.034,1.862 5.024,1.852 C5.019,1.842 5.014,1.837 5.009,1.827 C5.004,1.818 4.999,1.812 4.994,1.803 C4.989,1.793 4.978,1.783 4.973,1.773 C4.968,1.768 4.963,1.763 4.958,1.758 C4.948,1.748 4.938,1.739 4.927,1.729 C4.922,1.724 4.917,1.719 4.912,1.714 C4.902,1.704 4.892,1.694 4.877,1.685 C4.871,1.679 4.861,1.674 4.856,1.669 C4.846,1.660 4.836,1.655 4.826,1.645 C4.810,1.635 4.795,1.625 4.785,1.621 C4.780,1.616 4.775,1.616 4.770,1.611 C4.749,1.600 4.724,1.590 4.704,1.581 L0.955,0.051 C0.604,-0.092 0.202,0.066 0.055,0.406 C-0.093,0.747 0.070,1.137 0.421,1.280 L3.747,2.641 L3.747,5.660 L3.747,6.138 L3.747,9.808 L3.747,13.088 L3.747,17.232 C3.747,18.613 4.816,19.758 6.194,19.930 C5.945,20.335 5.797,20.808 5.797,21.311 C5.797,22.796 7.043,23.999 8.569,23.999 C10.095,23.999 11.342,22.791 11.342,21.311 C11.342,20.818 11.204,20.349 10.960,19.955 L17.135,19.955 C16.891,20.354 16.754,20.818 16.754,21.311 C16.754,22.796 18.000,23.999 19.526,23.999 C21.052,23.999 22.298,22.791 22.298,21.311 C22.298,19.832 21.052,18.623 19.526,18.623 L6.555,18.623 C5.762,18.623 5.121,17.997 5.121,17.232 L5.121,15.427 C5.538,15.663 6.031,15.801 6.555,15.801 ZM9.973,21.306 C9.973,22.056 9.343,22.663 8.575,22.663 C7.806,22.663 7.176,22.051 7.176,21.306 C7.176,20.561 7.806,19.950 8.575,19.950 C9.343,19.950 9.973,20.556 9.973,21.306 ZM20.930,21.306 C20.930,22.056 20.299,22.663 19.531,22.663 C18.763,22.663 18.132,22.051 18.132,21.306 C18.132,20.561 18.763,19.950 19.531,19.950 C20.299,19.950 20.930,20.556 20.930,21.306 ZM20.192,14.470 L6.555,14.470 C5.762,14.470 5.121,13.843 5.121,13.078 L5.121,9.799 L5.121,6.129 L5.121,5.882 L21.627,8.087 L21.627,13.073 C21.627,13.848 20.981,14.470 20.192,14.470 Z"/>
</svg>